<?xml version="1.0" standalone="no"?>
<svg xmlns:xlink="http://www.w3.org/1999/xlink" id="wave" style="transform:rotate(0deg); transition: 0.3s" viewBox="0 0 1440 490" version="1.1" xmlns="http://www.w3.org/2000/svg"><defs><linearGradient id="sw-gradient-0" x1="0" x2="0" y1="1" y2="0"><stop stop-color="rgba(255, 107, 0, 1)" offset="0%"/><stop stop-color="rgba(255, 138, 0, 1)" offset="100%"/></linearGradient></defs><path style="transform:translate(0, 0px); opacity:1" fill="url(#sw-gradient-0)" d="M0,147L80,138.8C160,131,320,114,480,155.2C640,196,800,294,960,326.7C1120,359,1280,327,1440,285.8C1600,245,1760,196,1920,171.5C2080,147,2240,147,2400,130.7C2560,114,2720,82,2880,114.3C3040,147,3200,245,3360,310.3C3520,376,3680,408,3840,383.8C4000,359,4160,278,4320,261.3C4480,245,4640,294,4800,302.2C4960,310,5120,278,5280,285.8C5440,294,5600,343,5760,326.7C5920,310,6080,229,6240,228.7C6400,229,6560,310,6720,302.2C6880,294,7040,196,7200,171.5C7360,147,7520,196,7680,212.3C7840,229,8000,212,8160,196C8320,180,8480,163,8640,196C8800,229,8960,310,9120,294C9280,278,9440,163,9600,130.7C9760,98,9920,147,10080,155.2C10240,163,10400,131,10560,114.3C10720,98,10880,98,11040,114.3C11200,131,11360,163,11440,179.7L11520,196L11520,490L11440,490C11360,490,11200,490,11040,490C10880,490,10720,490,10560,490C10400,490,10240,490,10080,490C9920,490,9760,490,9600,490C9440,490,9280,490,9120,490C8960,490,8800,490,8640,490C8480,490,8320,490,8160,490C8000,490,7840,490,7680,490C7520,490,7360,490,7200,490C7040,490,6880,490,6720,490C6560,490,6400,490,6240,490C6080,490,5920,490,5760,490C5600,490,5440,490,5280,490C5120,490,4960,490,4800,490C4640,490,4480,490,4320,490C4160,490,4000,490,3840,490C3680,490,3520,490,3360,490C3200,490,3040,490,2880,490C2720,490,2560,490,2400,490C2240,490,2080,490,1920,490C1760,490,1600,490,1440,490C1280,490,1120,490,960,490C800,490,640,490,480,490C320,490,160,490,80,490L0,490Z"/><defs><linearGradient id="sw-gradient-1" x1="0" x2="0" y1="1" y2="0"><stop stop-color="rgba(255, 107, 0, 1)" offset="0%"/><stop stop-color="rgba(255, 179, 11, 1)" offset="100%"/></linearGradient></defs><path style="transform:translate(0, 50px); opacity:0.9" fill="url(#sw-gradient-1)" d="M0,441L80,375.7C160,310,320,180,480,114.3C640,49,800,49,960,98C1120,147,1280,245,1440,294C1600,343,1760,343,1920,351.2C2080,359,2240,376,2400,359.3C2560,343,2720,294,2880,253.2C3040,212,3200,180,3360,163.3C3520,147,3680,147,3840,171.5C4000,196,4160,245,4320,294C4480,343,4640,392,4800,383.8C4960,376,5120,310,5280,269.5C5440,229,5600,212,5760,228.7C5920,245,6080,294,6240,294C6400,294,6560,245,6720,187.8C6880,131,7040,65,7200,40.8C7360,16,7520,33,7680,73.5C7840,114,8000,180,8160,196C8320,212,8480,180,8640,147C8800,114,8960,82,9120,98C9280,114,9440,180,9600,236.8C9760,294,9920,343,10080,326.7C10240,310,10400,229,10560,228.7C10720,229,10880,310,11040,302.2C11200,294,11360,196,11440,147L11520,98L11520,490L11440,490C11360,490,11200,490,11040,490C10880,490,10720,490,10560,490C10400,490,10240,490,10080,490C9920,490,9760,490,9600,490C9440,490,9280,490,9120,490C8960,490,8800,490,8640,490C8480,490,8320,490,8160,490C8000,490,7840,490,7680,490C7520,490,7360,490,7200,490C7040,490,6880,490,6720,490C6560,490,6400,490,6240,490C6080,490,5920,490,5760,490C5600,490,5440,490,5280,490C5120,490,4960,490,4800,490C4640,490,4480,490,4320,490C4160,490,4000,490,3840,490C3680,490,3520,490,3360,490C3200,490,3040,490,2880,490C2720,490,2560,490,2400,490C2240,490,2080,490,1920,490C1760,490,1600,490,1440,490C1280,490,1120,490,960,490C800,490,640,490,480,490C320,490,160,490,80,490L0,490Z"/><defs><linearGradient id="sw-gradient-2" x1="0" x2="0" y1="1" y2="0"><stop stop-color="rgba(255, 107, 0, 1)" offset="0%"/><stop stop-color="rgba(255, 179, 11, 1)" offset="100%"/></linearGradient></defs><path style="transform:translate(0, 100px); opacity:0.8" fill="url(#sw-gradient-2)" d="M0,0L80,40.8C160,82,320,163,480,204.2C640,245,800,245,960,228.7C1120,212,1280,180,1440,147C1600,114,1760,82,1920,81.7C2080,82,2240,114,2400,179.7C2560,245,2720,343,2880,318.5C3040,294,3200,147,3360,130.7C3520,114,3680,229,3840,261.3C4000,294,4160,245,4320,212.3C4480,180,4640,163,4800,138.8C4960,114,5120,82,5280,122.5C5440,163,5600,278,5760,318.5C5920,359,6080,327,6240,277.7C6400,229,6560,163,6720,163.3C6880,163,7040,229,7200,261.3C7360,294,7520,294,7680,302.2C7840,310,8000,327,8160,351.2C8320,376,8480,408,8640,375.7C8800,343,8960,245,9120,245C9280,245,9440,343,9600,343C9760,343,9920,245,10080,236.8C10240,229,10400,310,10560,359.3C10720,408,10880,425,11040,408.3C11200,392,11360,343,11440,318.5L11520,294L11520,490L11440,490C11360,490,11200,490,11040,490C10880,490,10720,490,10560,490C10400,490,10240,490,10080,490C9920,490,9760,490,9600,490C9440,490,9280,490,9120,490C8960,490,8800,490,8640,490C8480,490,8320,490,8160,490C8000,490,7840,490,7680,490C7520,490,7360,490,7200,490C7040,490,6880,490,6720,490C6560,490,6400,490,6240,490C6080,490,5920,490,5760,490C5600,490,5440,490,5280,490C5120,490,4960,490,4800,490C4640,490,4480,490,4320,490C4160,490,4000,490,3840,490C3680,490,3520,490,3360,490C3200,490,3040,490,2880,490C2720,490,2560,490,2400,490C2240,490,2080,490,1920,490C1760,490,1600,490,1440,490C1280,490,1120,490,960,490C800,490,640,490,480,490C320,490,160,490,80,490L0,490Z"/></svg>